<?xml version="1.0" encoding="UTF-8" standalone="no"?>
<!-- Created with Inkscape (http://www.inkscape.org/) -->

<svg
   width="17.929716mm"
   height="15mm"
   viewBox="0 0 17.929716 15"
   version="1.1"
   id="svg3028"
   inkscape:version="1.1.1 (3bf5ae0d25, 2021-09-20)"
   sodipodi:docname="non-fonctionnel.svg"
   inkscape:export-filename="C:\Users\BEAM48\OneDrive - Ministère de la Sécurité publique\Documents\Vigilance\non-fonctionnel.png"
   inkscape:export-xdpi="252.63"
   inkscape:export-ydpi="252.63"
   xmlns:inkscape="http://www.inkscape.org/namespaces/inkscape"
   xmlns:sodipodi="http://sodipodi.sourceforge.net/DTD/sodipodi-0.dtd"
   xmlns="http://www.w3.org/2000/svg"
   xmlns:svg="http://www.w3.org/2000/svg">
  <sodipodi:namedview
     id="namedview3030"
     pagecolor="#ffffff"
     bordercolor="#666666"
     borderopacity="1.0"
     inkscape:pageshadow="2"
     inkscape:pageopacity="0.0"
     inkscape:pagecheckerboard="0"
     inkscape:document-units="mm"
     showgrid="false"
     fit-margin-top="0"
     fit-margin-left="0"
     fit-margin-right="0"
     fit-margin-bottom="0"
     inkscape:zoom="1.8"
     inkscape:cx="-2.5"
     inkscape:cy="2.7777778"
     inkscape:window-width="1920"
     inkscape:window-height="986"
     inkscape:window-x="-11"
     inkscape:window-y="-11"
     inkscape:window-maximized="1"
     inkscape:current-layer="layer1" />
  <defs
     id="defs3025" />
  <g
     inkscape:groupmode="layer"
     id="layer2"
     inkscape:label="Calque 2" />
  <g
     inkscape:label="Calque 1"
     inkscape:groupmode="layer"
     id="layer1"
     transform="translate(-92.726273,-103.28186)">
    <g
       id="g520">
      <rect
         style="fill:#ffffff;stroke-width:1.17231;stroke-dasharray:1.17231, 2.34462;stroke-dashoffset:0.586155"
         id="rect3385"
         width="3.0140929"
         height="3.1815393"
         x="6.7615738"
         y="4.1157408"
         transform="translate(92.726273,103.28186)" />
      <rect
         style="fill:#ffffff;stroke-width:0.654021;stroke-dasharray:0.654021, 1.30804;stroke-dashoffset:0.32701"
         id="rect3387"
         width="3.0140934"
         height="9.995369"
         x="7.2907405"
         y="4.1157408"
         transform="translate(92.726273,103.28186)" />
      <path
         style="fill:#000000;stroke-width:0.405404"
         d="m 93.760084,116.55887 c 0.568594,-0.94762 2.531592,-4.32261 4.362217,-7.5 1.830626,-3.17733 3.436599,-5.77701 3.568829,-5.77701 0.13223,0 1.73821,2.59968 3.56883,5.77701 1.83063,3.17739 3.79363,6.55238 4.36222,7.5 l 1.03381,1.72299 h -8.96486 -8.964857 z m 8.741856,-1.52026 c 0,-0.54054 -0.27029,-0.81083 -0.81081,-0.81083 -0.54054,0 -0.81081,0.27049 -0.81081,0.81083 0,0.54053 0.27029,0.81082 0.81081,0.81082 0.54054,0 0.81081,-0.27048 0.81081,-0.81082 z m 0,-4.45947 c 0,-1.75675 -0.1081,-2.02699 -0.81081,-2.02699 -0.7027,0 -0.81081,0.27049 -0.81081,2.02699 0,1.75675 0.1081,2.02704 0.81081,2.02704 0.7027,0 0.81081,-0.27049 0.81081,-2.02704 z"
         id="path40" />
    </g>
  </g>
</svg>
